<svg xmlns="http://www.w3.org/2000/svg" viewBox="0 0 128 128"><rect width="128" height="128" rx="36" fill="#e0f3ef"/><circle cx="111" cy="14" r="30" fill="#0a8787" opacity=".1"/><path d="M20 128v-7q0-28 44-28t44 28v7" fill="#0a8787"/><rect x="34" y="28" width="60" height="66" rx="27" fill="#bf815e"/><path d="M33 60V42c0-30 62-31 62 0v19L80 37 46 47Z" fill="#102a43"/><circle cx="52" cy="64" r="3" fill="#102a43"/><circle cx="77" cy="64" r="3" fill="#102a43"/><path d="M57 80q8 6 15-1" fill="none" stroke="#102a43" stroke-width="3" stroke-linecap="round"/><path d="M40 59h23v16H40Zm25 0h23v16H65Z" fill="none" stroke="#102a43" stroke-width="3"/><path d="M62 64h4" stroke="#102a43" stroke-width="3"/><path d="m58 111 6 7 6-7" fill="none" stroke="#fff" stroke-width="3" stroke-linecap="round"/></svg>
